<svg xmlns="http://www.w3.org/2000/svg" width="477.867" height="477.863" viewBox="0 0 477.867 477.863">
  <defs>
    <style>
      .cls-1 {
        fill: #fff;
      }
    </style>
  </defs>
  <g id="chat" transform="translate(0 -0.002)">
    <g id="Grupo_1" data-name="Grupo 1">
      <path id="Trazado_1" data-name="Trazado 1" class="cls-1" d="M426.667,0H51.2A51.2,51.2,0,0,0,0,51.2V324.269a51.2,51.2,0,0,0,51.2,51.2h60.587L102.5,458.925a17.067,17.067,0,0,0,28.382,14.558L239.8,375.469H426.667a51.2,51.2,0,0,0,51.2-51.2V51.2A51.2,51.2,0,0,0,426.667,0Zm17.066,324.267a17.067,17.067,0,0,1-17.067,17.067H233.25a17.07,17.07,0,0,0-11.418,4.386L141.38,418.136l6.434-57.839a17.063,17.063,0,0,0-16.964-18.961H51.2a17.067,17.067,0,0,1-17.067-17.067V51.2A17.067,17.067,0,0,1,51.2,34.135H426.667A17.067,17.067,0,0,1,443.734,51.2V324.269Z"/>
    </g>
  </g>
</svg>
