<svg xmlns="http://www.w3.org/2000/svg" width="423.999" height="512.001" viewBox="0 0 423.999 512.001">
  <defs>
    <style>
      .cls-1 {
        fill: #fff;
      }
    </style>
  </defs>
  <g id="checklist" transform="translate(-44.001)">
    <g id="Grupo_2" data-name="Grupo 2">
      <g id="Grupo_1" data-name="Grupo 1">
        <path id="Trazado_1" data-name="Trazado 1" class="cls-1" d="M400,152H256a10,10,0,0,0,0,20H400a10,10,0,1,0,0-20Z"/>
      </g>
    </g>
    <g id="Grupo_4" data-name="Grupo 4">
      <g id="Grupo_3" data-name="Grupo 3">
        <path id="Trazado_2" data-name="Trazado 2" class="cls-1" d="M365.011,202.931a9.995,9.995,0,1,0,2.93,7.07A10.076,10.076,0,0,0,365.011,202.931Z"/>
      </g>
    </g>
    <g id="Grupo_6" data-name="Grupo 6">
      <g id="Grupo_5" data-name="Grupo 5">
        <path id="Trazado_3" data-name="Trazado 3" class="cls-1" d="M263.061,45.931a9.995,9.995,0,1,0,2.93,7.07A10.076,10.076,0,0,0,263.061,45.931Z"/>
      </g>
    </g>
    <g id="Grupo_8" data-name="Grupo 8">
      <g id="Grupo_7" data-name="Grupo 7">
        <path id="Trazado_4" data-name="Trazado 4" class="cls-1" d="M315.878,200H256a10,10,0,0,0,0,20h59.877a10,10,0,1,0,0-20Z"/>
      </g>
    </g>
    <g id="Grupo_10" data-name="Grupo 10">
      <g id="Grupo_9" data-name="Grupo 9">
        <path id="Trazado_5" data-name="Trazado 5" class="cls-1" d="M400,260H256a10,10,0,0,0,0,20H400a10,10,0,1,0,0-20Z"/>
      </g>
    </g>
    <g id="Grupo_12" data-name="Grupo 12">
      <g id="Grupo_11" data-name="Grupo 11">
        <path id="Trazado_6" data-name="Trazado 6" class="cls-1" d="M365.011,310.931a9.995,9.995,0,1,0,2.93,7.07A10.076,10.076,0,0,0,365.011,310.931Z"/>
      </g>
    </g>
    <g id="Grupo_14" data-name="Grupo 14">
      <g id="Grupo_13" data-name="Grupo 13">
        <path id="Trazado_7" data-name="Trazado 7" class="cls-1" d="M315.878,308H256a10,10,0,0,0,0,20h59.877a10,10,0,1,0,0-20Z"/>
      </g>
    </g>
    <g id="Grupo_16" data-name="Grupo 16">
      <g id="Grupo_15" data-name="Grupo 15">
        <path id="Trazado_8" data-name="Trazado 8" class="cls-1" d="M400,368H256a10,10,0,0,0,0,20H400a10,10,0,1,0,0-20Z"/>
      </g>
    </g>
    <g id="Grupo_18" data-name="Grupo 18">
      <g id="Grupo_17" data-name="Grupo 17">
        <path id="Trazado_9" data-name="Trazado 9" class="cls-1" d="M365.011,418.931a9.995,9.995,0,1,0,2.93,7.07A10.076,10.076,0,0,0,365.011,418.931Z"/>
      </g>
    </g>
    <g id="Grupo_20" data-name="Grupo 20">
      <g id="Grupo_19" data-name="Grupo 19">
        <path id="Trazado_10" data-name="Trazado 10" class="cls-1" d="M315.878,416H256a10,10,0,0,0,0,20h59.877a10,10,0,1,0,0-20Z"/>
      </g>
    </g>
    <g id="Grupo_22" data-name="Grupo 22">
      <g id="Grupo_21" data-name="Grupo 21">
        <path id="Trazado_11" data-name="Trazado 11" class="cls-1" d="M419.243,39H342.864a61.268,61.268,0,0,0-42.385-17h-8.76a40,40,0,0,0-71.438,0H211.5a61.266,61.266,0,0,0-42.384,17H92.759A48.814,48.814,0,0,0,44,87.759V463.243A48.814,48.814,0,0,0,92.759,512H419.242A48.814,48.814,0,0,0,468,463.243V87.759A48.812,48.812,0,0,0,419.243,39ZM211.5,42h15.586a10,10,0,0,0,9.639-7.338,20,20,0,0,1,38.549,0A10,10,0,0,0,284.914,42h15.565a41.558,41.558,0,0,1,41.354,38H170.147A41.559,41.559,0,0,1,211.5,42ZM448,463.244A28.791,28.791,0,0,1,419.243,492H92.759A28.791,28.791,0,0,1,64,463.244V87.759A28.791,28.791,0,0,1,92.759,59h62.347A61.135,61.135,0,0,0,150,83.5V90a10,10,0,0,0,10,10H351.98a10,10,0,0,0,10-10V83.5A61.139,61.139,0,0,0,356.875,59h62.368A28.791,28.791,0,0,1,448,87.759Z"/>
      </g>
    </g>
    <g id="Grupo_24" data-name="Grupo 24">
      <g id="Grupo_23" data-name="Grupo 23">
        <path id="Trazado_12" data-name="Trazado 12" class="cls-1" d="M192.41,149.6a10,10,0,0,0-14.142,0l-42.762,42.763-13.173-13.174a10,10,0,1,0-14.143,14.143l20.245,20.245a10,10,0,0,0,14.142,0l49.833-49.833A10,10,0,0,0,192.41,149.6Z"/>
      </g>
    </g>
    <g id="Grupo_26" data-name="Grupo 26">
      <g id="Grupo_25" data-name="Grupo 25">
        <path id="Trazado_13" data-name="Trazado 13" class="cls-1" d="M168,368H120a10,10,0,0,0-10,10v48a10,10,0,0,0,10,10h48a10,10,0,0,0,10-10V378A10,10,0,0,0,168,368Zm-10,48H130V388h28Z"/>
      </g>
    </g>
    <g id="Grupo_28" data-name="Grupo 28">
      <g id="Grupo_27" data-name="Grupo 27">
        <path id="Trazado_14" data-name="Trazado 14" class="cls-1" d="M168,260H120a10,10,0,0,0-10,10v48a10,10,0,0,0,10,10h48a10,10,0,0,0,10-10V270A10,10,0,0,0,168,260Zm-10,48H130V280h28Z"/>
      </g>
    </g>
  </g>
</svg>
